<svg width="20" height="20" viewBox="0 0 20 20" fill="none" xmlns="http://www.w3.org/2000/svg">
<path fill-rule="evenodd" clip-rule="evenodd" d="M9.99985 3C14.5333 3 17.5166 6.5805 19.829 9.43945C20.036 9.69561 20.0566 10.0555 19.8807 10.334C18.8674 11.9386 17.4492 13.5528 15.7713 14.7725C14.0949 15.9911 12.1161 16.8457 9.99985 16.8457C7.88361 16.8457 5.90484 15.9912 4.22837 14.7725C2.55052 13.5528 1.13224 11.9386 0.118991 10.334C-0.0568682 10.0555 -0.0362989 9.69561 0.170749 9.43945C2.48316 6.58057 5.46639 3 9.99985 3ZM9.99985 4.53809C6.49171 4.53809 4.02164 7.16002 1.72153 9.97168C2.61562 11.2776 3.79008 12.5523 5.13266 13.5283C6.63391 14.6196 8.30245 15.3076 9.99985 15.3076C11.6973 15.3076 13.3658 14.6196 14.867 13.5283C16.2098 12.5522 17.384 11.2768 18.2782 9.9707C15.9782 7.15916 13.5079 4.53809 9.99985 4.53809ZM9.99985 7.10254C11.5575 7.10254 12.82 8.36519 12.8202 9.92285C12.8202 11.4806 11.5576 12.7432 9.99985 12.7432C8.44209 12.7432 7.17954 11.4806 7.17954 9.92285C7.17966 8.3652 8.44217 7.10254 9.99985 7.10254ZM9.99985 8.64062C9.29184 8.64063 8.71774 9.21486 8.71762 9.92285C8.71762 10.6309 9.29176 11.2051 9.99985 11.2051C10.7079 11.2051 11.2821 10.6309 11.2821 9.92285C11.282 9.21486 10.7079 8.64062 9.99985 8.64062Z" fill="black"/>
</svg>
