<?xml version="1.0" standalone="no"?>
<!DOCTYPE svg PUBLIC "-//W3C//DTD SVG 20010904//EN"
 "http://www.w3.org/TR/2001/REC-SVG-20010904/DTD/svg10.dtd">
<svg version="1.0" xmlns="http://www.w3.org/2000/svg"
 width="512.000000pt" height="512.000000pt" viewBox="0 0 512.000000 512.000000"
 preserveAspectRatio="xMidYMid meet">

<g transform="translate(0.000000,512.000000) scale(0.100000,-0.100000)"
fill="#000000" stroke="none">
<path d="M916 5109 c-227 -33 -478 -163 -625 -325 -121 -132 -211 -295 -259
-469 l-27 -100 0 -1655 0 -1655 27 -100 c106 -384 389 -667 775 -773 l98 -27
1252 -3 1252 -3 4 588 c4 652 1 626 73 773 51 104 170 223 274 274 147 72 121
69 773 73 l587 4 -1 1167 0 1167 -27 -75 c-34 -94 -81 -178 -143 -255 -26 -33
-616 -627 -1311 -1321 -1081 -1079 -1275 -1269 -1348 -1316 -158 -104 -296
-162 -468 -198 -119 -26 -486 -39 -595 -22 -197 31 -338 172 -369 369 -17 109
-4 476 22 595 38 180 118 362 222 503 63 86 2536 2566 2628 2636 80 60 159
103 248 134 l67 24 -1535 -1 c-844 0 -1562 -4 -1594 -9z"/>
<path d="M4156 4704 c-127 -31 -93 2 -1427 -1333 -1304 -1304 -1310 -1311
-1374 -1456 -58 -130 -67 -185 -72 -417 l-5 -218 183 0 c272 0 414 36 576 143
50 33 413 391 1333 1311 1379 1380 1315 1311 1341 1455 57 320 -236 592 -555
515z"/>
<path d="M3982 1269 c-46 -14 -118 -88 -131 -135 -17 -61 -15 -1064 2 -1064
24 0 179 80 251 130 92 64 767 740 825 827 45 67 121 218 121 240 0 11 -98 13
-517 12 -297 0 -532 -5 -551 -10z"/>
</g>
</svg>
